<svg width="50" height="30" viewBox="0 0 50 30" fill="none" xmlns="http://www.w3.org/2000/svg">
<path d="M40.0704 10C38.9063 9.99219 37.7969 10.1797 36.7579 10.5391L34.1876 6.25H40.6251C41.6641 6.25 42.5001 5.41406 42.5001 4.375V1.875C42.5001 0.835938 41.6641 0 40.6251 0H37.086C36.5548 0 36.0469 0.226563 35.6954 0.617188L32.7657 3.875L30.9844 0.90625C30.6407 0.34375 30.0313 0 29.3751 0H23.1251C22.4376 0 21.8751 0.5625 21.8751 1.25V2.5C21.8751 3.1875 22.4376 3.75 23.1251 3.75H28.3126L29.8126 6.25H17.8048C16.422 4.44531 14.297 3.125 10.0001 3.125H5.66415C4.60946 3.125 3.72665 3.98438 3.75009 5.03906C3.76571 6.05469 4.60165 6.875 5.62508 6.875H10.0001C11.9141 6.875 13.0235 7.72656 13.7345 8.8125L12.8516 10.4141C11.836 10.1094 10.7501 9.96875 9.62508 10.0078C4.36727 10.1953 0.125088 14.5 8.83467e-05 19.7656C-0.124912 25.3984 4.39852 30 10.0001 30C14.6563 30 18.5704 26.8125 19.6876 22.5H26.2657C27.336 22.5 28.1876 21.6094 28.1407 20.5391C27.9766 16.8594 29.5079 13.2187 32.5313 10.7734L33.5079 12.3984C31.3516 14.25 29.9844 17 30.0079 20.0703C30.0469 25.5078 34.4766 29.9531 39.9141 30C45.5079 30.0547 50.0547 25.5078 50.0079 19.9141C49.9532 14.4766 45.5079 10.0391 40.0704 10ZM10.0001 26.25C6.55477 26.25 3.75009 23.4453 3.75009 20C3.75009 16.5547 6.55477 13.75 10.0001 13.75C10.3282 13.75 10.6563 13.7734 10.9766 13.8281L7.73446 19.7188C7.04696 20.9688 7.95321 22.5 9.37508 22.5H15.7266C14.7579 24.7031 12.5548 26.25 10.0001 26.25ZM46.2423 20.3438C46.0704 23.5156 43.5079 26.0781 40.3438 26.2422C36.7423 26.4375 33.7501 23.5625 33.7501 20C33.7501 18.3281 34.4063 16.8125 35.4766 15.6953L39.336 22.1328C39.6876 22.7266 40.461 22.9141 41.0548 22.5625L42.1251 21.9219C42.7188 21.5703 42.9063 20.7969 42.5548 20.2031L38.7579 13.8828C39.1641 13.7969 39.5782 13.7578 40.0001 13.7578C43.5626 13.75 46.4298 16.7422 46.2423 20.3438Z" fill="white"/>
</svg>
