<svg width="50" height="50" viewBox="0 0 50 50" fill="none" xmlns="http://www.w3.org/2000/svg">
<path d="M25 3.125C12.9199 3.125 3.125 12.9199 3.125 25C3.125 37.0801 12.9199 46.875 25 46.875C37.0801 46.875 46.875 37.0801 46.875 25C46.875 12.9199 37.0801 3.125 25 3.125ZM25 43.1641C14.9707 43.1641 6.83594 35.0293 6.83594 25C6.83594 14.9707 14.9707 6.83594 25 6.83594C35.0293 6.83594 43.1641 14.9707 43.1641 25C43.1641 35.0293 35.0293 43.1641 25 43.1641ZM30.7471 14.4238C29.9707 14.2529 29.0674 14.1602 28.0469 14.1602C22.8369 14.1602 19.3115 16.8799 18.3496 21.4795H16.7969C16.582 21.4795 16.4062 21.6553 16.4062 21.8701V23.1982C16.4062 23.4131 16.582 23.5889 16.7969 23.5889H18.0859C18.0713 23.7891 18.0713 23.999 18.0713 24.2139V26.0156H16.7969C16.582 26.0156 16.4062 26.1914 16.4062 26.4062V27.7344C16.4062 27.9492 16.582 28.125 16.7969 28.125H18.2715C19.1113 32.9688 22.6855 35.8398 28.0469 35.8398C29.0674 35.8398 29.9707 35.7568 30.7471 35.5908C30.9277 35.5518 31.0596 35.3955 31.0596 35.21V33.1201C31.0596 32.876 30.835 32.6904 30.5957 32.7393C29.8779 32.876 29.0381 32.9395 28.0664 32.9395C24.7217 32.9395 22.4756 31.1523 21.7285 28.125H28.1055C28.3203 28.125 28.4961 27.9492 28.4961 27.7344V26.4062C28.4961 26.1914 28.3203 26.0156 28.1055 26.0156H21.4453V24.2578C21.4453 24.0283 21.4453 23.7988 21.46 23.584H28.0957C28.3105 23.584 28.4863 23.4082 28.4863 23.1934V21.8652C28.4863 21.6504 28.3105 21.4746 28.0957 21.4746H21.8311C22.6709 18.6963 24.873 17.0605 28.0615 17.0605C29.0332 17.0605 29.873 17.1338 30.5859 17.2754C30.6425 17.2869 30.701 17.2858 30.7571 17.272C30.8132 17.2583 30.8656 17.2323 30.9104 17.1958C30.9552 17.1594 30.9914 17.1135 31.0164 17.0614C31.0413 17.0093 31.0544 16.9523 31.0547 16.8945V14.8047C31.0547 14.6191 30.9277 14.4629 30.7471 14.4238Z" fill="white"/>
</svg>
