<svg width="53" height="50" viewBox="0 0 53 50" fill="none" xmlns="http://www.w3.org/2000/svg">
<g clip-path="url(#clip0_41_163)">
<path d="M18.8162 11.6223L10.924 19.1942C10.3587 19.7366 10.3587 20.616 10.924 21.1584L11.5075 21.7182C12.0728 22.2606 12.9894 22.2606 13.5548 21.7182L21.447 14.1463C22.0123 13.6039 22.0123 12.7245 21.447 12.1821L20.8635 11.6223C20.2981 11.0799 19.3816 11.0799 18.8162 11.6223Z" fill="white"/>
<path d="M33.8023 23.3333L34.7143 22.4583C35.0546 22.1318 35.3601 21.7736 35.6263 21.3889H31.7611L29.7055 23.3333L46.3243 39.2778V44.4445H41.7788L39.2164 42V38.1111H33.8891V33.9445H27.2156L22.8727 29.7778L20.2669 32.375C19.4526 33.1553 18.3488 33.5936 17.1979 33.5936C16.0471 33.5936 14.9433 33.1553 14.129 32.375L6.5144 25C5.70112 24.2188 5.24431 23.1597 5.24431 22.0556C5.24431 20.9514 5.70112 19.8924 6.5144 19.1111L18.9061 7.22224C19.7204 6.44196 20.8243 6.00368 21.9751 6.00368C23.126 6.00368 24.2298 6.44196 25.0441 7.22224L29.0975 11.1945L30.5451 8.70835L27.0853 5.33335C25.7279 4.03147 23.8872 3.30011 21.9679 3.30011C20.0486 3.30011 18.2079 4.03147 16.8505 5.33335L4.47324 17.2084C3.11629 18.5106 2.354 20.2767 2.354 22.1181C2.354 23.9595 3.11629 25.7255 4.47324 27.0278L12.0878 34.3333C13.4451 35.6352 15.2859 36.3666 17.2052 36.3666C19.1245 36.3666 20.9652 35.6352 22.3226 34.3333L22.9016 33.7778L26.0575 36.7778H31.0373V40.9445H36.3791V43.2083L40.5338 47.2222H49.2196V38.125L33.8023 23.3333Z" fill="white"/>
<path d="M38.8689 1.58331L30.5885 15.2778C30.3958 15.549 30.2852 15.8662 30.2689 16.1941C30.2527 16.522 30.3313 16.8478 30.4962 17.1355C30.6611 17.4231 30.9058 17.6613 31.2031 17.8237C31.5005 17.9861 31.8389 18.0663 32.1809 18.0555H48.7563C49.0982 18.0663 49.4367 17.9861 49.734 17.8237C50.0314 17.6613 50.276 17.4231 50.4409 17.1355C50.6058 16.8478 50.6845 16.522 50.6682 16.1941C50.6519 15.8662 50.5413 15.549 50.3487 15.2778L42.0682 1.58331C41.9049 1.31533 41.6713 1.09305 41.3907 0.938575C41.11 0.7841 40.7921 0.70282 40.4686 0.70282C40.145 0.70282 39.8271 0.7841 39.5465 0.938575C39.2658 1.09305 39.0322 1.31533 38.8689 1.58331Z" fill="#ED1D24"/>
</g>
<defs>
<clipPath id="clip0_41_163">
<rect width="52.1148" height="50" fill="white"/>
</clipPath>
</defs>
</svg>
