<svg width="42" height="35" viewBox="0 0 42 35" fill="none" xmlns="http://www.w3.org/2000/svg">
<path fill-rule="evenodd" clip-rule="evenodd" d="M10 29.5625C10 29.1481 10.1646 28.7507 10.4576 28.4576C10.7507 28.1646 11.1481 28 11.5625 28H39.6875C40.1019 28 40.4993 28.1646 40.7924 28.4576C41.0854 28.7507 41.25 29.1481 41.25 29.5625C41.25 29.9769 41.0854 30.3743 40.7924 30.6674C40.4993 30.9604 40.1019 31.125 39.6875 31.125H11.5625C11.1481 31.125 10.7507 30.9604 10.4576 30.6674C10.1646 30.3743 10 29.9769 10 29.5625ZM10 17.0625C10 16.6481 10.1646 16.2507 10.4576 15.9576C10.7507 15.6646 11.1481 15.5 11.5625 15.5H39.6875C40.1019 15.5 40.4993 15.6646 40.7924 15.9576C41.0854 16.2507 41.25 16.6481 41.25 17.0625C41.25 17.4769 41.0854 17.8743 40.7924 18.1674C40.4993 18.4604 40.1019 18.625 39.6875 18.625H11.5625C11.1481 18.625 10.7507 18.4604 10.4576 18.1674C10.1646 17.8743 10 17.4769 10 17.0625ZM10 4.5625C10 4.1481 10.1646 3.75067 10.4576 3.45765C10.7507 3.16462 11.1481 3 11.5625 3H39.6875C40.1019 3 40.4993 3.16462 40.7924 3.45765C41.0854 3.75067 41.25 4.1481 41.25 4.5625C41.25 4.9769 41.0854 5.37433 40.7924 5.66735C40.4993 5.96038 40.1019 6.125 39.6875 6.125H11.5625C11.1481 6.125 10.7507 5.96038 10.4576 5.66735C10.1646 5.37433 10 4.9769 10 4.5625Z" fill="white"/>
<path d="M4.00637 0.856234C4.05953 0.683917 4.1665 0.533167 4.3116 0.426086C4.4567 0.319006 4.63229 0.26123 4.81262 0.26123C4.99295 0.26123 5.16854 0.319006 5.31363 0.426086C5.45873 0.533167 5.5657 0.683917 5.61887 0.856234L6.12512 2.51248C6.23449 2.87186 6.56262 3.11873 6.93137 3.11873H8.65324C9.46262 3.11873 9.80949 4.15936 9.16574 4.65936L7.70324 5.79373C7.56504 5.90182 7.46294 6.04935 7.41048 6.21677C7.35802 6.3842 7.35768 6.56361 7.40949 6.73123L7.95012 8.50936C8.19387 9.30936 7.28449 9.95311 6.62824 9.44686L5.32512 8.43436C5.17862 8.32033 4.99827 8.25841 4.81262 8.25841C4.62697 8.25841 4.44662 8.32033 4.30012 8.43436L2.99699 9.44373C2.34074 9.95311 1.43449 9.30936 1.67512 8.50936L2.21574 6.72811C2.26687 6.56092 2.26616 6.38216 2.21373 6.21538C2.1613 6.04859 2.05959 5.9016 1.92199 5.79373L0.459492 4.65936C-0.184258 4.15936 0.162617 3.11873 0.971992 3.11873H2.69074C2.87291 3.11818 3.05005 3.05889 3.19585 2.94968C3.34166 2.84046 3.44836 2.68715 3.50012 2.51248L4.00637 0.856234ZM4.00637 13.3562C4.05953 13.1839 4.1665 13.0332 4.3116 12.9261C4.4567 12.819 4.63229 12.7612 4.81262 12.7612C4.99295 12.7612 5.16854 12.819 5.31363 12.9261C5.45873 13.0332 5.5657 13.1839 5.61887 13.3562L6.12512 15.0125C6.23449 15.3719 6.56262 15.6187 6.93137 15.6187H8.65324C9.46262 15.6187 9.80949 16.6594 9.16574 17.1594L7.70324 18.2937C7.56504 18.4018 7.46294 18.5494 7.41048 18.7168C7.35802 18.8842 7.35768 19.0636 7.40949 19.2312L7.95012 21.0094C8.19387 21.8062 7.28449 22.4531 6.62824 21.9469L5.32512 20.9344C5.17862 20.8203 4.99827 20.7584 4.81262 20.7584C4.62697 20.7584 4.44662 20.8203 4.30012 20.9344L2.99699 21.9437C2.34074 22.4531 1.43449 21.8094 1.67512 21.0094L2.21574 19.2281C2.26687 19.0609 2.26616 18.8822 2.21373 18.7154C2.1613 18.5486 2.05959 18.4016 1.92199 18.2937L0.459492 17.1594C-0.184258 16.6594 0.162617 15.6187 0.971992 15.6187H2.69074C2.87291 15.6182 3.05005 15.5589 3.19585 15.4497C3.34166 15.3405 3.44836 15.1871 3.50012 15.0125L4.00637 13.3562ZM4.00637 25.8562C4.05953 25.6839 4.1665 25.5332 4.3116 25.4261C4.4567 25.319 4.63229 25.2612 4.81262 25.2612C4.99295 25.2612 5.16854 25.319 5.31363 25.4261C5.45873 25.5332 5.5657 25.6839 5.61887 25.8562L6.12512 27.5125C6.23449 27.8719 6.56262 28.1187 6.93137 28.1187H8.65324C9.46262 28.1187 9.80949 29.1594 9.16574 29.6594L7.70324 30.7937C7.56504 30.9018 7.46294 31.0493 7.41048 31.2168C7.35802 31.3842 7.35768 31.5636 7.40949 31.7312L7.95012 33.5094C8.19387 34.3062 7.28449 34.9531 6.62824 34.4469L5.32512 33.4344C5.17862 33.3203 4.99827 33.2584 4.81262 33.2584C4.62697 33.2584 4.44662 33.3203 4.30012 33.4344L2.99699 34.4437C2.34074 34.9531 1.43449 34.3094 1.67512 33.5094L2.21574 31.7281C2.26687 31.5609 2.26616 31.3822 2.21373 31.2154C2.1613 31.0486 2.05959 30.9016 1.92199 30.7937L0.459492 29.6594C-0.184258 29.1594 0.162617 28.1187 0.971992 28.1187H2.69074C2.87291 28.1182 3.05005 28.0589 3.19585 27.9497C3.34166 27.8405 3.44836 27.6871 3.50012 27.5125L4.00637 25.8562Z" fill="#ED1D24"/>
</svg>
