<svg width="50" height="50" viewBox="0 0 50 50" fill="none" xmlns="http://www.w3.org/2000/svg">
<path d="M25.0244 9.29688L20.415 18.6377L10.1025 20.1367L17.5635 27.4121L15.8008 37.6806L25.0244 32.832L34.248 37.6758L32.4853 27.4072L39.9463 20.1367L29.6338 18.6377L25.0244 9.29688Z" fill="#ED1D24"/>
<path d="M44.3652 17.2266L31.9677 15.4248L26.4257 4.18947C26.2743 3.88185 26.0253 3.63283 25.7177 3.48146C24.9462 3.1006 24.0087 3.41799 23.623 4.18947L18.081 15.4248L5.68352 17.2266C5.34172 17.2754 5.02922 17.4365 4.78996 17.6807C4.50071 17.978 4.34132 18.3779 4.34682 18.7927C4.35231 19.2075 4.52224 19.6031 4.81926 19.8926L13.789 28.6377L11.6698 40.9864C11.6202 41.2736 11.6519 41.569 11.7616 41.8391C11.8713 42.1093 12.0544 42.3432 12.2903 42.5145C12.5262 42.6859 12.8053 42.7877 13.0961 42.8084C13.3869 42.8291 13.6777 42.768 13.9355 42.6319L25.0243 36.8018L36.1132 42.6319C36.416 42.793 36.7675 42.8467 37.1044 42.7881C37.954 42.6416 38.5253 41.836 38.3788 40.9864L36.2597 28.6377L45.2294 19.8926C45.4736 19.6533 45.6347 19.3408 45.6835 18.999C45.8154 18.1446 45.2197 17.3535 44.3652 17.2266ZM32.4853 27.4072L34.248 37.6758L25.0243 32.8321L15.8007 37.6807L17.5634 27.4121L10.1025 20.1367L20.415 18.6377L25.0243 9.29689L29.6337 18.6377L39.9462 20.1367L32.4853 27.4072Z" fill="white"/>
</svg>
